<svg version="1.1" viewBox="0 0 24 24" xmlns="http://www.w3.org/2000/svg">
 <path d="m4.2431 9.2648.072359.85384q.79595-1.0275 2.1274-1.0275 1.3748 0 1.9392 1.2446.78148-1.2446 2.2431-1.2446 2.4168 0 2.4747 3.343v6.0058h-2.4023v-5.8611q0-.79595-.21708-1.1288-.23155-.34732-.75253-.34732-.6657 0-.99855.82489l.014472.28944v6.2229h-2.4023v-5.8466q0-.78148-.2026-1.1288-.21708-.36179-.75253-.36179-.62229 0-.98408.6657v6.6715h-2.4023v-9.1751z"/>
 <path d="m22 14.156q0 2.2576-.72359 3.2706-.72359 1.1577-2.1708 1.1577-1.1577 0-1.8813-1.013l-.14472.86831h-2.1997v-13.025h2.3444v4.602q.72359-.92619 1.8813-.92619 1.4472 0 2.1708 1.1143.72359 1.0999.72359 3.2417zm-2.3155-.60782q0-1.4472-.28944-1.9392-.28944-.50651-1.013-.50651t-1.1577.69464v4.1823q.43415.57887 1.1577.57887t1.013-.43415q.28944-.43415.28944-1.7077z"/>
</svg>
